<svg width="24" height="24" viewBox="0 0 24 24" fill="none" xmlns="http://www.w3.org/2000/svg">
<path d="M22.5467 9.72656C22.5467 12.18 21.9453 13.7878 21.1531 15.3544C10.0082 13.7558 6.57897 8.20477 8.42041 0.929062C9.53791 0.556875 10.7431 0.351562 11.9998 0.351562C17.8245 0.351562 22.5467 4.76531 22.5467 9.72656Z" fill="#99B2E9"/>
<path d="M10.9716 22.2421C10.8834 23.0197 10.223 23.6483 9.39422 23.6483C7.57219 23.6483 5.96438 22.475 5.38922 20.7463C3.86391 16.1629 1.45312 14.6385 1.45312 9.72646C1.45312 5.83536 4.3575 2.2813 8.42062 0.928955C8.46328 1.40567 8.51813 1.88239 8.5875 2.35677C3.96895 15.2078 10.9716 22.2421 10.9716 22.2421Z" fill="#85A4E4"/>
<path d="M21.1532 15.3544C20.3596 16.9242 19.3743 18.4523 18.6107 20.7464C18.3233 21.6108 17.7772 22.3364 17.0755 22.8459C16.3743 23.355 15.5164 23.6484 14.6057 23.6484C13.7769 23.6484 13.1164 23.0198 13.0283 22.2422L19.7638 14.9822C20.2096 15.1153 20.6727 15.2391 21.1532 15.3544Z" fill="#85A4E4"/>
<path d="M21.1407 9.72651C21.1407 10.8065 21.0113 11.6967 20.7905 12.4978C20.7905 12.4978 20.3478 12.4794 20.3091 12.6001C20.2704 12.7208 20.5585 13.2229 20.5585 13.2229C20.3386 13.829 20.0672 14.3981 19.7639 14.9821C10.692 13.5165 8.08269 8.53565 8.58754 2.35683C8.62738 2.34183 8.66723 2.32776 8.70707 2.3137C9.64035 1.98604 10.6313 2.26776 11.6485 2.23261C11.7657 2.22839 12.2344 2.22839 12.3516 2.23261C13.3688 2.26776 14.3597 1.98604 15.293 2.3137C16.4813 2.73042 17.5772 3.37495 18.5152 4.22245C19.8174 5.39808 20.686 6.87792 21.0052 8.41776C21.0052 8.41776 20.7695 8.58567 20.7905 8.74631C20.8118 8.90934 21.1313 9.38808 21.1313 9.38808C21.1374 9.50104 21.1407 9.61354 21.1407 9.72651Z" fill="#FFCE71"/>
<path d="M19.7639 14.9822C19.6163 15.2663 19.4611 15.5537 19.3013 15.8504C19.3013 15.8504 18.8486 15.955 18.8435 15.9644C18.7347 16.166 18.9534 16.4977 18.9534 16.4977C18.5175 17.3166 18.0609 18.2222 17.6419 19.2929C17.6419 19.2929 17.2153 19.3497 17.167 19.4807C17.1302 19.5804 17.3859 19.9824 17.3859 19.9824C17.3489 20.0874 17.3123 20.1943 17.2762 20.3026C16.8905 21.4627 15.817 22.2422 14.6058 22.2422H13.0284C13.0116 22.0955 13.0153 21.9437 13.042 21.7894L13.5328 18.9633L14.0554 18.6378L13.6584 18.2377L13.9425 16.6027C13.9627 16.4874 13.972 16.3735 13.972 16.261C13.972 15.6404 13.6781 15.0751 13.2136 14.7108C13.2136 14.7108 12.6745 13.914 12.3516 13.8558C12.2377 13.8357 11.7623 13.8357 11.6484 13.8558C11.3259 13.9135 10.7869 14.7108 10.7869 14.7108C10.238 15.1402 9.92719 15.8518 10.0575 16.6027L10.3416 18.2377L9.98086 18.5958L10.4672 18.9633L10.958 21.7894C10.9739 21.8822 10.9819 21.9741 10.9819 22.0646C10.9819 22.1246 10.9786 22.1837 10.9716 22.2422H9.39422C8.18297 22.2422 7.10953 21.4627 6.72375 20.3021C6.68766 20.1938 6.65156 20.0874 6.61406 19.9824C6.61406 19.9824 6.88641 19.5553 6.84633 19.447C6.80109 19.3249 6.35812 19.2924 6.35812 19.2924C5.93906 18.2222 5.4825 17.3166 5.04656 16.4977C5.04656 16.4977 5.22619 16.0964 5.11744 15.8949C5.11228 15.8855 4.69875 15.8504 4.69875 15.8504C4.20891 14.9424 3.76828 14.124 3.44156 13.223C3.44156 13.223 3.67448 12.7569 3.63281 12.6251C3.59789 12.5148 3.20953 12.4979 3.20953 12.4979C2.98875 11.6968 2.85938 10.8066 2.85938 9.72662C2.85938 9.61365 2.86266 9.50115 2.86875 9.38818C2.86875 9.38818 3.1597 8.98848 3.18858 8.79175C3.20714 8.66514 2.99489 8.41787 2.99489 8.41787C3.31411 6.87803 4.1827 5.39818 5.48489 4.22256C6.39145 3.40365 7.4452 2.77412 8.58755 2.35693C9.35484 7.62381 11.9109 12.6427 19.7639 14.9822Z" fill="#FFB357"/>
<path d="M15.0468 11.5914C15.0468 12.0381 14.9638 12.4285 14.8134 12.7637C12.2158 12.4347 10.7521 11.0285 10.5215 8.28198C10.9593 7.93933 11.4632 7.7312 11.9999 7.7312C13.6827 7.7312 15.0468 9.77917 15.0468 11.5914Z" fill="#FCE3A0"/>
<path d="M14.8134 12.7637C14.355 13.7884 13.268 14.2937 12 14.2937C10.3172 14.2937 8.95312 13.4035 8.95312 11.5914C8.95312 10.3571 9.58594 9.01323 10.5216 8.28198C11.4914 9.96808 12.8681 11.499 14.8134 12.7637Z" fill="#FFCE71"/>
<path d="M13.5244 11.363C13.5244 11.5055 13.5047 11.6438 13.4681 11.7746C12.4807 11.4368 11.799 10.8664 11.6138 9.88784C11.7371 9.85597 11.8664 9.83862 12 9.83862C12.8419 9.83862 13.5244 10.5211 13.5244 11.363Z" fill="#FFF8E6"/>
<path d="M15.293 2.31375C13.4709 1.75781 12.2892 3.37641 12 4.60359C11.7108 3.37641 10.5291 1.75781 8.70703 2.31375C9.64031 1.98609 10.6312 1.79906 11.6484 1.76391C11.7656 1.75969 11.8823 1.75781 12 1.75781C12.1177 1.75781 12.2344 1.75969 12.3516 1.76391C13.3688 1.79906 14.3597 1.98609 15.293 2.31375Z" fill="#FFF8E6"/>
<path d="M13.4681 11.7744C13.2886 12.4166 12.6993 12.8872 12 12.8872C11.1581 12.8872 10.4756 12.2047 10.4756 11.3629C10.4756 10.6546 10.9589 10.0588 11.6137 9.8877C12.1453 10.5543 12.7593 11.1857 13.4681 11.7744Z" fill="#FCE3A0"/>
<path d="M12 0.351562C6.17531 0.351562 1.45312 4.76531 1.45312 9.72656C1.45312 14.6385 3.86391 16.1627 5.38927 20.7463C5.96456 22.475 7.57214 23.6484 9.39408 23.6484C10.3794 23.6484 11.1267 22.7602 10.9581 21.7894L10.0573 16.6028C9.84787 15.3969 10.7761 14.2936 12 14.2936C13.2239 14.2936 14.1521 15.3969 13.9427 16.6027L13.0419 21.7894C12.8733 22.7601 13.6206 23.6484 14.6059 23.6484C16.4278 23.6484 18.0354 22.475 18.6107 20.7463C20.1361 16.1627 22.5469 14.6385 22.5469 9.72656C22.5469 4.76531 17.8247 0.351562 12 0.351562Z" stroke="black" stroke-width="0.703125" stroke-miterlimit="10" stroke-linecap="round" stroke-linejoin="round"/>
<path d="M19.1281 16.1709C18.5318 15.8554 17.9351 15.5798 17.3389 15.3435" stroke="black" stroke-width="0.703125" stroke-miterlimit="10" stroke-linecap="round" stroke-linejoin="round"/>
<path d="M4.87158 16.171C8.50955 14.2468 12.1475 13.7959 15.7855 14.8173" stroke="black" stroke-width="0.703125" stroke-miterlimit="10" stroke-linecap="round" stroke-linejoin="round"/>
<path d="M17.5126 19.6318H17.5121C16.2067 19.0979 14.9017 18.7533 13.5962 18.5991" stroke="black" stroke-width="0.703125" stroke-miterlimit="10" stroke-linecap="round" stroke-linejoin="round"/>
<path d="M6.48779 19.6313C7.79326 19.0974 9.09873 18.7533 10.4037 18.5991" stroke="black" stroke-width="0.703125" stroke-miterlimit="10" stroke-linecap="round" stroke-linejoin="round"/>
<path d="M20.6815 12.8629C18.7395 11.6118 16.797 10.7802 14.8545 10.3691" stroke="black" stroke-width="0.703125" stroke-miterlimit="10" stroke-linecap="round" stroke-linejoin="round"/>
<path d="M5.49758 11.6353C4.77102 11.9859 4.04445 12.3946 3.31836 12.8629" stroke="black" stroke-width="0.703125" stroke-miterlimit="10" stroke-linecap="round" stroke-linejoin="round"/>
<path d="M9.14527 10.3691C8.43231 10.5201 7.7198 10.7273 7.00684 10.9916" stroke="black" stroke-width="0.703125" stroke-miterlimit="10" stroke-linecap="round" stroke-linejoin="round"/>
<path d="M2.91211 8.91131H2.91258C8.9707 4.82709 15.0288 4.82709 21.087 8.91131H21.0874" stroke="black" stroke-width="0.703125" stroke-miterlimit="10" stroke-linecap="round" stroke-linejoin="round"/>
<path d="M15.0469 11.5915C15.0469 13.4037 13.6827 14.2937 12 14.2937C10.3173 14.2937 8.95312 13.4037 8.95312 11.5915C8.95312 9.77931 10.3172 7.7312 12 7.7312C13.6828 7.7312 15.0469 9.77931 15.0469 11.5915Z" stroke="black" stroke-width="0.703125" stroke-miterlimit="10" stroke-linecap="round" stroke-linejoin="round"/>
<path d="M12 12.8874C12.8419 12.8874 13.5243 12.2049 13.5243 11.363C13.5243 10.5211 12.8419 9.83862 12 9.83862C11.1581 9.83862 10.4756 10.5211 10.4756 11.363C10.4756 12.2049 11.1581 12.8874 12 12.8874Z" stroke="black" stroke-width="0.703125" stroke-miterlimit="10" stroke-linecap="round" stroke-linejoin="round"/>
<path d="M12 14.2937V12.8875" stroke="black" stroke-width="0.703125" stroke-miterlimit="10" stroke-linecap="round" stroke-linejoin="round"/>
<path d="M12 9.83852V4.60352" stroke="black" stroke-width="0.703125" stroke-miterlimit="10" stroke-linecap="round" stroke-linejoin="round"/>
<path d="M10.9716 22.2422H9.39422C8.18297 22.2422 7.10953 21.4627 6.72375 20.302C6.11391 18.4697 5.37 17.093 4.71375 15.878C3.67781 13.9594 2.85938 12.4439 2.85938 9.72656C2.85938 7.73531 3.81609 5.72906 5.48484 4.2225C7.24453 2.63297 9.55828 1.75781 12 1.75781C14.2852 1.75781 16.4583 2.52422 18.1702 3.92578" stroke="black" stroke-width="0.703125" stroke-miterlimit="10" stroke-linecap="round" stroke-linejoin="round"/>
<path d="M19.3405 5.07568C20.4955 6.44584 21.1405 8.09162 21.1405 9.72662C21.1405 12.444 20.3221 13.9594 19.2861 15.878C18.6299 17.093 17.886 18.4697 17.2761 20.3026C16.8904 21.4627 15.8169 22.2422 14.6057 22.2422H13.0283" stroke="black" stroke-width="0.703125" stroke-miterlimit="10" stroke-linecap="round" stroke-linejoin="round"/>
<path d="M15.293 2.31385C13.4709 1.75791 12.2892 3.3765 12 4.60369C11.7108 3.3765 10.5291 1.75791 8.70703 2.31385" stroke="black" stroke-width="0.703125" stroke-miterlimit="10" stroke-linecap="round" stroke-linejoin="round"/>
</svg>
