<svg width="24" height="24" viewBox="0 0 24 24" fill="none" xmlns="http://www.w3.org/2000/svg">
<g clip-path="url(#clip0_62_35428)">
<path d="M3.82728 8.50244C3.01278 9.56716 2.65175 10.6925 2.64181 11.7079C2.62916 13.0019 3.18659 14.1172 4.10206 14.7009C4.93105 15.2294 5.78591 15.1646 6.48664 14.6622C7.00011 14.294 7.4308 13.6908 7.70778 12.9139L3.82728 8.50244Z" fill="#B7BAF0"/>
<path d="M11.377 2.12657C12.2083 1.81223 13.1934 1.59613 14.2049 1.47754C15.2163 1.35895 16.2541 1.33781 17.1907 1.41341C18.1137 1.4879 18.7136 2.41499 18.3971 3.28518C18.1572 3.94495 17.9588 4.71759 17.8331 5.54291C17.6595 6.68291 17.6249 7.92346 17.8115 9.10574L11.377 2.12657Z" fill="#B7BAF0"/>
<path d="M14.9361 13.272C13.9103 14.7009 13.6162 16.2735 13.7629 17.6996C13.8821 18.8581 14.2921 19.9199 14.837 20.7293C15.4099 21.5802 16.2694 21.2735 17.077 20.4583C17.8279 19.7002 18.534 18.5025 18.9231 17.3868C19.0663 16.9762 19.3875 16.655 19.7982 16.5117C20.9138 16.1226 22.1115 15.4165 22.8696 14.6656C23.6848 13.858 23.9915 12.9986 23.1406 12.4257C22.3312 11.8807 21.2694 11.4707 20.1109 11.3515C18.6848 11.2049 17.1122 11.4989 15.6834 12.5248L14.9361 13.272Z" fill="#D3D3FF"/>
<path d="M20.0255 11.3436C18.6222 11.2171 17.0838 11.5193 15.6834 12.5247L14.9361 13.272C13.9103 14.7009 13.6162 16.2736 13.7629 17.6996C13.8821 18.8581 14.2921 19.9199 14.837 20.7293C15.4099 21.5802 16.2694 21.2735 17.077 20.4583C17.8279 19.7002 18.534 18.5025 18.9231 17.3868C19.0663 16.9762 19.3876 16.655 19.7982 16.5118C20.002 16.4407 20.2086 16.3588 20.4147 16.2682C19.257 15.1562 19.1133 12.7609 20.0255 11.3436Z" fill="#B7BAF0"/>
<path d="M17.0256 14.6142C15.8788 15.7611 13.5689 16.1508 11.1319 15.5939C9.33119 15.1824 7.46106 14.2541 5.93941 12.7324C4.41775 11.2108 3.48944 9.34064 3.07792 7.53994C2.521 5.10291 2.91077 2.79305 4.05761 1.6462C5.20445 0.499406 7.51431 0.10964 9.95134 0.666515C11.752 1.07803 13.6222 2.00634 15.1438 3.528C16.6655 5.04966 17.5938 6.91978 18.0053 8.72048C18.5622 11.1575 18.1724 13.4674 17.0256 14.6142Z" fill="#EEECFF"/>
<path d="M9.9513 0.666545C7.51427 0.109623 5.20441 0.499389 4.05756 1.64623C2.91077 2.79308 2.521 5.10294 3.07792 7.53997C3.48939 9.34067 4.41775 11.2108 5.93941 12.7325C7.37083 14.1639 9.1106 15.0701 10.8108 15.5151C7.91181 10.4259 7.44742 4.72311 10.8658 0.919436C10.5603 0.820342 10.2548 0.73592 9.9513 0.666545Z" fill="#D3D3FF"/>
<path d="M13.0011 10.0965C12.7127 10.3848 12.3231 10.7492 11.869 11.0418C11.5554 11.2439 11.1359 11.1478 10.9381 10.8313C10.6848 10.426 10.4595 9.98501 10.2918 9.55277C9.94107 8.64874 9.84206 7.78277 10.2647 7.36015C10.6873 6.93752 11.5533 7.03652 12.4573 7.38729C12.8895 7.55501 13.3305 7.78024 13.7359 8.03356C14.0523 8.23127 14.1484 8.65085 13.9463 8.96449C13.6538 9.41852 13.2894 9.80815 13.0011 10.0965Z" fill="#B7BAF0"/>
<path d="M9.9513 0.666545C10.8797 0.878701 11.8264 1.22862 12.7344 1.72601C12.9739 2.64556 12.8796 3.72926 12.5099 4.78601C11.788 6.84936 10.016 8.80995 7.627 9.24533C6.3453 9.4789 4.88603 9.2735 3.31609 8.4094C3.22328 8.11892 3.14388 7.82853 3.07792 7.53997C2.521 5.10294 2.91077 2.79308 4.05761 1.64623C5.20441 0.499389 7.51427 0.109623 9.9513 0.666545Z" fill="#D3D3FF"/>
<path d="M10.8658 0.919437C10.5603 0.820296 10.2548 0.735875 9.95127 0.666546C7.51428 0.109625 5.20442 0.49939 4.05758 1.64619C2.91078 2.79303 2.52102 5.10289 3.07789 7.53992C3.14385 7.82853 3.22325 8.11892 3.31606 8.40936C4.886 9.27345 6.34531 9.47886 7.62697 9.24528C7.94867 9.18664 8.25875 9.09955 8.55702 8.98906C8.20325 5.98639 8.87764 3.13166 10.8658 0.919437Z" fill="#B7BAF0"/>
<path d="M8.38097 12.6731H3.2333C1.64175 12.6731 0.351562 13.9633 0.351562 15.5548V20.7025C0.351562 22.294 1.64175 23.5842 3.2333 23.5842H8.38097C9.97252 23.5842 11.2627 22.294 11.2627 20.7025V15.5549C11.2627 13.9633 9.97252 12.6731 8.38097 12.6731Z" fill="#A3E6FF"/>
<path d="M3.2333 12.6729C1.64175 12.6729 0.351562 13.9631 0.351562 15.5546V20.7023C0.351562 22.2939 1.64175 23.584 3.2333 23.584H5.92481C3.39595 21.1958 3.06534 15.7334 4.82358 12.6729H3.2333V12.6729Z" fill="#59D5FF"/>
<path d="M5.57892 23.584H8.38097C9.97252 23.584 11.2627 22.2938 11.2627 20.7023V15.5546C11.2627 13.963 9.97252 12.6729 8.38097 12.6729H3.2333C1.64175 12.6729 0.351562 13.963 0.351562 15.5546V20.7023C0.351562 22.2938 1.64175 23.584 3.2333 23.584H3.91439" stroke="black" stroke-width="0.703125" stroke-miterlimit="10" stroke-linecap="round" stroke-linejoin="round"/>
<path d="M11.2625 15.6222C13.6512 16.1359 15.8993 15.7405 17.0256 14.6142C18.1724 13.4674 18.5622 11.1575 18.0053 8.72047C17.5938 6.91976 16.6655 5.04964 15.1438 3.52798C13.6221 2.00637 11.752 1.07806 9.95131 0.666545C7.51428 0.109623 5.20442 0.499389 4.05758 1.64623C2.91078 2.79303 2.52102 5.10294 3.07789 7.53992C3.48406 9.31737 4.39424 11.1622 5.88106 12.673" stroke="black" stroke-width="0.703125" stroke-miterlimit="10" stroke-linecap="round" stroke-linejoin="round"/>
<path d="M3.50862 8.95874C2.91837 9.88415 2.65034 10.8363 2.64181 11.7076C2.63839 12.0584 2.67715 12.3959 2.75333 12.7134" stroke="black" stroke-width="0.703125" stroke-miterlimit="10" stroke-linecap="round" stroke-linejoin="round"/>
<path d="M13.837 15.8259C13.7181 16.462 13.7005 17.0939 13.7628 17.6994C13.882 18.8579 14.292 19.9197 14.8369 20.7291C15.4098 21.5801 16.2693 21.2734 17.0769 20.4581C17.8278 19.7 18.5339 18.5023 18.923 17.3867C19.0662 16.976 19.3874 16.6548 19.7981 16.5116C20.9137 16.1225 22.1115 15.4164 22.8695 14.6655C23.6848 13.8579 23.9915 12.9985 23.1406 12.4256C22.3312 11.8806 21.2694 11.4706 20.1108 11.3514C19.5054 11.2891 18.8734 11.3067 18.2373 11.4256" stroke="black" stroke-width="0.703125" stroke-miterlimit="10" stroke-linecap="round" stroke-linejoin="round"/>
<path d="M15.0582 1.40063C14.7734 1.41859 14.4879 1.44418 14.2044 1.47742C13.7027 1.53624 13.2076 1.61912 12.7344 1.72604" stroke="black" stroke-width="0.703125" stroke-miterlimit="10" stroke-linecap="round" stroke-linejoin="round"/>
<path d="M17.688 7.61271C17.6781 6.90954 17.7316 6.20899 17.833 5.54276C17.9587 4.71743 18.1571 3.94479 18.3971 3.28502C18.7136 2.41483 18.1136 1.48774 17.1906 1.41326C17.0416 1.40121 16.89 1.39165 16.7363 1.38452" stroke="black" stroke-width="0.703125" stroke-miterlimit="10" stroke-linecap="round" stroke-linejoin="round"/>
<path d="M8.98953 4.80835L8.5918 5.20608" stroke="black" stroke-width="0.703125" stroke-miterlimit="10" stroke-linecap="round" stroke-linejoin="round"/>
<path d="M5.98826 2.57861C5.96871 2.86357 6.06753 3.15513 6.28535 3.37296C6.50318 3.59079 6.79475 3.68964 7.0797 3.67005" stroke="black" stroke-width="0.703125" stroke-miterlimit="10" stroke-linecap="round" stroke-linejoin="round"/>
<path d="M2.80469 18.1284H8.80966" stroke="black" stroke-width="0.703125" stroke-miterlimit="10" stroke-linecap="round" stroke-linejoin="round"/>
<path d="M3.46533 17.1997L4.39402 18.1284L3.46533 19.0571" stroke="black" stroke-width="0.703125" stroke-miterlimit="10" stroke-linecap="round" stroke-linejoin="round"/>
<path d="M8.14895 17.1997L7.22021 18.1284L8.14895 19.0571" stroke="black" stroke-width="0.703125" stroke-miterlimit="10" stroke-linecap="round" stroke-linejoin="round"/>
<path d="M5.80713 21.131V15.126" stroke="black" stroke-width="0.703125" stroke-miterlimit="10" stroke-linecap="round" stroke-linejoin="round"/>
<path d="M4.87842 20.4702L5.80715 19.5415L6.73589 20.4702" stroke="black" stroke-width="0.703125" stroke-miterlimit="10" stroke-linecap="round" stroke-linejoin="round"/>
<path d="M4.87842 15.7869L5.80715 16.7156L6.73589 15.7869" stroke="black" stroke-width="0.703125" stroke-miterlimit="10" stroke-linecap="round" stroke-linejoin="round"/>
<path d="M12.7347 1.72607C12.9742 2.64562 12.8799 3.72932 12.5102 4.78607C11.7884 6.84942 10.0163 8.81001 7.62731 9.24539C6.34561 9.47896 4.88634 9.27356 3.31641 8.40946" stroke="black" stroke-width="0.703125" stroke-miterlimit="10" stroke-linecap="round" stroke-linejoin="round"/>
<path d="M9.98682 8.21909C9.9931 8.61411 10.1077 9.07812 10.2918 9.55283C10.4596 9.98506 10.6848 10.426 10.9381 10.8314C11.1358 11.1478 11.5554 11.2439 11.869 11.0418C12.3231 10.7492 12.7127 10.3849 13.0011 10.0965C13.2894 9.8082 13.6538 9.41858 13.9463 8.96454C14.1485 8.6509 14.0524 8.23133 13.7359 8.03361C13.3306 7.78029 12.8896 7.55506 12.4574 7.38734C12.0121 7.21456 11.5761 7.10309 11.1977 7.08472" stroke="black" stroke-width="0.703125" stroke-miterlimit="10" stroke-linecap="round" stroke-linejoin="round"/>
</g>
<defs>
<clipPath id="clip0_62_35428">
<rect width="24" height="24" fill="white"/>
</clipPath>
</defs>
</svg>
