<svg width="24" height="24" viewBox="0 0 24 24" fill="none" xmlns="http://www.w3.org/2000/svg">
<path d="M12.1773 0.351562H11.8227C10.4427 0.351562 9.38937 1.58466 9.60499 2.94764L9.78227 4.06838C9.95487 5.15944 10.8954 5.96287 12 5.96287C13.1046 5.96287 14.0451 5.15944 14.2177 4.06838L14.395 2.94764C14.6106 1.58466 13.5572 0.351562 12.1773 0.351562Z" fill="#EEECFF"/>
<path d="M12.0001 4.48145C13.7962 4.48145 15.4381 4.9374 16.6956 5.69068C18.2089 6.59715 19.1659 7.93421 19.1659 9.42549C19.1659 10.9168 18.2089 12.2538 16.6956 13.1603C15.4381 13.9136 13.7962 14.3695 12.0001 14.3695C10.2039 14.3695 8.56206 13.9136 7.30449 13.1603C5.79118 12.2538 4.83423 10.9168 4.83423 9.42549C4.83423 7.93421 5.79118 6.59715 7.30449 5.69068C8.56206 4.9374 10.2039 4.48145 12.0001 4.48145Z" fill="#D3D3FF"/>
<path d="M19.0312 10.384H12.721C11.8683 10.384 11.1471 9.74211 11.0607 8.89381C10.8938 7.25445 11.1406 5.50512 11.9432 4.48193C10.1693 4.49145 8.54879 4.94539 7.30449 5.69075C5.79118 6.59721 4.83423 7.93428 4.83423 9.42556C4.83423 10.9168 5.79118 12.2539 7.30449 13.1604C8.56206 13.9137 10.2039 14.3696 12.0001 14.3696C13.7962 14.3696 15.4381 13.9137 16.6956 13.1604C17.8762 12.4532 18.718 11.484 19.0312 10.384Z" fill="#B7BAF0"/>
<path d="M20.6639 13.5942H3.33594V21.8444H20.6639V13.5942Z" fill="#72D98B"/>
<path d="M10.8138 13.5942H3.33594V21.8444H11.2159V21.6244C9.50427 20.0228 9.46475 15.7675 10.8138 13.8544V13.5942Z" fill="#00C67F"/>
<path d="M10.0371 17.8943C9.94288 18.4685 9.64381 18.9051 9.27594 19.2044C8.97706 19.4474 8.63281 19.5999 8.31603 19.6618C7.98299 19.7268 7.85371 19.454 7.85549 19.0744C7.85717 18.7214 7.97216 18.2761 8.14208 17.9241C8.20461 17.7946 8.20461 17.6443 8.14208 17.5148C7.97216 17.1628 7.85713 16.7175 7.85549 16.3645C7.85371 15.9849 7.98299 15.7122 8.31603 15.7772C8.63281 15.8391 8.97711 15.9915 9.27594 16.2346C9.64381 16.5338 9.94288 16.9705 10.0371 17.5446V17.8943Z" fill="#D3D3FF"/>
<path d="M9.65625 17.7194C9.65625 18.2559 10.1054 18.8873 10.8057 19.3271C11.3231 19.652 11.9777 19.8723 12.6895 19.8723C13.4014 19.8723 14.0559 19.6521 14.5734 19.3271C15.2737 18.8873 15.7228 18.2559 15.7228 17.7194C15.7228 17.1829 15.2737 16.5514 14.5734 16.1117C14.0559 15.7867 13.4014 15.5664 12.6895 15.5664C11.9777 15.5664 11.3231 15.7867 10.8057 16.1117C10.1054 16.5514 9.65625 17.1829 9.65625 17.7194Z" fill="#EEECFF"/>
<path d="M20.7113 14.1038H3.28862C2.64976 14.1038 2.13184 13.5859 2.13184 12.9471C2.13184 12.3082 2.64976 11.7903 3.28862 11.7903H20.7113C21.3502 11.7903 21.8681 12.3082 21.8681 12.9471C21.8681 13.5859 21.3502 14.1038 20.7113 14.1038Z" fill="#EEECFF"/>
<path d="M20.7113 21.3347H3.28862C2.64976 21.3347 2.13184 21.8526 2.13184 22.4915C2.13184 23.1304 2.64976 23.6483 3.28862 23.6483H20.7113C21.3502 23.6483 21.8681 23.1304 21.8681 22.4915C21.8681 21.8526 21.3502 21.3347 20.7113 21.3347Z" fill="#EEECFF"/>
<path d="M11.2159 11.7903H3.28862C2.64976 11.7903 2.13184 12.3082 2.13184 12.9471C2.13184 13.5859 2.64976 14.1038 3.28862 14.1038H11.3986C10.8992 13.5458 10.7476 12.4845 11.2159 11.7903Z" fill="#D3D3FF"/>
<path d="M11.2159 21.3347H3.28862C2.64976 21.3347 2.13184 21.8526 2.13184 22.4915C2.13184 23.1304 2.64976 23.6483 3.28862 23.6483H11.3986C10.8992 23.0902 10.7476 22.0289 11.2159 21.3347Z" fill="#D3D3FF"/>
<path d="M9.65625 17.7194C9.65625 18.2559 10.1054 18.8873 10.8057 19.3271C11.3231 19.652 11.9777 19.8723 12.6895 19.8723C13.4014 19.8723 14.0559 19.6521 14.5734 19.3271C15.2737 18.8873 15.7228 18.2559 15.7228 17.7194C15.7228 17.1829 15.2737 16.5514 14.5734 16.1117C14.0559 15.7867 13.4014 15.5664 12.6895 15.5664C11.9777 15.5664 11.3231 15.7867 10.8057 16.1117C10.1054 16.5514 9.65625 17.1829 9.65625 17.7194Z" stroke="black" stroke-width="0.703125" stroke-miterlimit="10" stroke-linecap="round" stroke-linejoin="round"/>
<path d="M20.7113 14.1038H3.28862C2.64976 14.1038 2.13184 13.5859 2.13184 12.9471C2.13184 12.3082 2.64976 11.7903 3.28862 11.7903H20.7113C21.3502 11.7903 21.8681 12.3082 21.8681 12.9471C21.8681 13.5859 21.3502 14.1038 20.7113 14.1038Z" stroke="black" stroke-width="0.703125" stroke-miterlimit="10" stroke-linecap="round" stroke-linejoin="round"/>
<path d="M8.86712 23.6485H20.7113C21.3501 23.6485 21.868 23.1306 21.868 22.4917C21.868 21.8529 21.3501 21.335 20.7113 21.335H3.28862C2.64976 21.335 2.13184 21.8529 2.13184 22.4917C2.13184 23.1306 2.64976 23.6485 3.28862 23.6485H7.18219" stroke="black" stroke-width="0.703125" stroke-miterlimit="10" stroke-linecap="round" stroke-linejoin="round"/>
<path d="M9.87908 17.0164C9.73531 16.6949 9.5211 16.434 9.27594 16.2346C8.97706 15.9915 8.63281 15.8391 8.31603 15.7772C7.98299 15.7122 7.85371 15.9849 7.85549 16.3645C7.85717 16.7175 7.97216 17.1628 8.14208 17.5148C8.20461 17.6444 8.20461 17.7946 8.14208 17.9241C7.97216 18.2761 7.85713 18.7214 7.85549 19.0744C7.85371 19.454 7.98299 19.7268 8.31603 19.6618C8.63281 19.5999 8.97711 19.4474 9.27594 19.2044C9.5211 19.0049 9.73531 18.7441 9.87908 18.4226" stroke="black" stroke-width="0.703125" stroke-miterlimit="10" stroke-linecap="round" stroke-linejoin="round"/>
<path d="M20.6641 21.3349V14.104" stroke="black" stroke-width="0.703125" stroke-miterlimit="10" stroke-linecap="round" stroke-linejoin="round"/>
<path d="M3.33594 14.104V21.3349" stroke="black" stroke-width="0.703125" stroke-miterlimit="10" stroke-linecap="round" stroke-linejoin="round"/>
<path d="M16.511 5.5838C15.2793 4.89446 13.7096 4.48145 12.0001 4.48145C10.2039 4.48145 8.56206 4.9374 7.30449 5.69068C5.79118 6.59715 4.83423 7.93421 4.83423 9.42549C4.83423 10.2821 5.15049 11.0877 5.70615 11.7902" stroke="black" stroke-width="0.703125" stroke-miterlimit="10" stroke-linecap="round" stroke-linejoin="round"/>
<path d="M18.2938 11.7904C18.8494 11.0879 19.1657 10.2823 19.1657 9.42564C19.1657 8.36228 18.6792 7.37739 17.8513 6.57104" stroke="black" stroke-width="0.703125" stroke-miterlimit="10" stroke-linecap="round" stroke-linejoin="round"/>
<path d="M14.0272 4.68244C14.1179 4.49184 14.1833 4.28597 14.2177 4.06837L14.395 2.94764C14.6106 1.58466 13.5572 0.351562 12.1773 0.351562H11.8227C10.4427 0.351562 9.38937 1.58466 9.60499 2.94764L9.78227 4.06837C9.81668 4.28597 9.88207 4.4918 9.97277 4.68244" stroke="black" stroke-width="0.703125" stroke-miterlimit="10" stroke-linecap="round" stroke-linejoin="round"/>
<path d="M11.9966 2.36401V2.64222" stroke="black" stroke-width="0.703125" stroke-miterlimit="10" stroke-linecap="round" stroke-linejoin="round"/>
<path d="M13.3884 17.2036V17.7661" stroke="black" stroke-width="0.703125" stroke-miterlimit="10" stroke-linecap="round" stroke-linejoin="round"/>
</svg>
