<svg width="24" height="24" viewBox="0 0 24 24" fill="none" xmlns="http://www.w3.org/2000/svg">
<path d="M18.7811 20.8245C21.5069 15.5732 21.5051 8.42316 18.7811 3.17536C18.4482 2.05735 15.3429 1.34227 12.1615 1.29614C5.21903 2.42231 5.39537 20.2832 10.5149 22.4512C13.8805 22.6735 17.7505 22.1787 18.7811 20.8245Z" fill="#FFCA47"/>
<path d="M8.84635 11.9837C9.12207 7.59809 10.3953 3.75078 12.1615 1.29607C9.16023 1.25257 6.09128 1.80443 5.21898 3.17529C2.49315 8.42661 2.49498 15.5766 5.21898 20.8244C5.78921 21.7242 8.01263 22.2859 10.5149 22.4511C9.25163 19.8113 8.5891 16.0752 8.84635 11.9837Z" fill="#FFB51E"/>
<path d="M20.4245 1.76324C20.4245 0.983381 19.7925 0.351318 19.0126 0.351318C18.4645 0.351318 11.0469 0.351318 7.21517 0.351318C5.219 0.351318 4.89331 0.983896 4.89331 1.76324C4.89331 2.5431 5.219 3.17516 7.21517 3.17516H19.0126C19.792 3.17516 20.4245 2.54258 20.4245 1.76324Z" fill="#FADE65"/>
<path d="M5.80317 1.76324C5.80317 0.983896 6.43571 0.351318 7.2151 0.351318C6.00614 0.351318 5.15396 0.351318 4.98736 0.351318C4.20797 0.351318 3.57544 0.983896 3.57544 1.76324C3.57544 2.5431 4.2075 3.17516 4.98736 3.17516H7.2151C6.43524 3.17516 5.80317 2.5431 5.80317 1.76324Z" fill="#FFCA47"/>
<path d="M20.4245 22.2364C20.4245 21.4565 19.7925 20.8245 19.0126 20.8245C18.4645 20.8245 11.0469 20.8245 7.21517 20.8245C5.219 20.8245 4.89331 21.457 4.89331 22.2364C4.89331 23.0162 5.219 23.6483 7.21517 23.6483H19.0126C19.792 23.6483 20.4245 23.0157 20.4245 22.2364Z" fill="#FADE65"/>
<path d="M5.80317 22.2364C5.80317 21.457 6.43571 20.8245 7.2151 20.8245C6.00614 20.8245 5.15396 20.8245 4.98736 20.8245C4.20797 20.8245 3.57544 21.457 3.57544 22.2364C3.57544 23.0162 4.2075 23.6483 4.98736 23.6483H7.2151C6.43524 23.6483 5.80317 23.0162 5.80317 22.2364Z" fill="#FFCA47"/>
<path d="M13.213 8.13577C12.7772 7.26366 12.8478 6.34496 13.3711 6.08377C13.7606 5.88863 14.2909 5.97286 14.7164 6.41382C14.8468 6.54896 15.0647 6.54896 15.1952 6.41382C15.6207 5.97291 16.151 5.88863 16.5404 6.08377C17.0638 6.34496 17.1344 7.26366 16.6986 8.13577C16.4783 8.5763 16.1705 8.92032 15.8528 9.11893C15.2543 9.46894 14.6563 9.46988 14.0587 9.11893C13.741 8.92032 13.4332 8.5763 13.213 8.13577Z" fill="#E95539"/>
<path d="M14.9558 18.015C14.0964 18.015 13.3806 17.3312 13.2234 15.2317C13.2234 13.4325 16.6882 13.4325 16.6882 15.2317C16.5311 17.3312 15.8152 18.015 14.9558 18.015Z" fill="#E95539"/>
<path d="M13.2234 15.2316C12.9429 11.5851 14.4128 5.78531 15.8529 9.11892C16.5263 10.6798 16.8251 13.4527 16.6883 15.2316C15.6245 14.7162 14.3255 14.6976 13.2234 15.2316Z" fill="#FF7061"/>
<path d="M10.7872 15.8639C11.223 16.736 11.1524 17.6548 10.629 17.9159C10.2396 18.1111 9.70926 18.0268 9.28378 17.5859C9.15333 17.4508 8.93545 17.4508 8.805 17.5859C8.37947 18.0268 7.84917 18.1111 7.45973 17.9159C6.93637 17.6548 6.86578 16.736 7.30158 15.8639C7.52184 15.4234 7.82962 15.0794 8.14734 14.8808C8.74584 14.5308 9.34387 14.5298 9.94144 14.8808C10.2592 15.0793 10.5669 15.4234 10.7872 15.8639Z" fill="#E95539"/>
<path d="M9.04442 5.98462C9.90382 5.98462 10.6197 6.66848 10.7769 8.76801C10.7769 10.5671 7.31201 10.5671 7.31201 8.76801C7.46914 6.66843 8.18501 5.98462 9.04442 5.98462Z" fill="#E95539"/>
<path d="M10.7769 8.76807C11.0574 12.4147 9.58751 18.2144 8.14742 14.8808C7.47401 13.3199 7.17518 10.5471 7.31201 8.76807C8.37584 9.28355 9.67479 9.30211 10.7769 8.76807Z" fill="#FF7061"/>
<path d="M5.21898 20.8244C2.49498 15.5766 2.49315 8.42661 5.21898 3.17529" stroke="black" stroke-width="0.703125" stroke-miterlimit="10" stroke-linecap="round" stroke-linejoin="round"/>
<path d="M20.2077 6.96924C21.3464 11.4604 20.9303 16.6844 18.7812 20.8245" stroke="black" stroke-width="0.703125" stroke-miterlimit="10" stroke-linecap="round" stroke-linejoin="round"/>
<path d="M19.7336 5.39201C19.4597 4.60887 19.1401 3.86759 18.781 3.17529" stroke="black" stroke-width="0.703125" stroke-miterlimit="10" stroke-linecap="round" stroke-linejoin="round"/>
<path d="M4.98736 3.17541C4.2075 3.17541 3.57544 2.54334 3.57544 1.76348C3.57544 0.984141 4.20797 0.351562 4.98736 0.351562H19.0125C19.7924 0.351562 20.4245 0.983625 20.4245 1.76348C20.4245 2.54283 19.7919 3.17541 19.0125 3.17541C18.318 3.17541 5.70839 3.17541 4.98736 3.17541Z" stroke="black" stroke-width="0.703125" stroke-miterlimit="10" stroke-linecap="round" stroke-linejoin="round"/>
<path d="M9.86794 23.6483H19.0125C19.7919 23.6483 20.4245 23.0158 20.4245 22.2364C20.4245 21.4565 19.7924 20.8245 19.0125 20.8245C18.2915 20.8245 5.68205 20.8245 4.98736 20.8245C4.20797 20.8245 3.57544 21.457 3.57544 22.2364C3.57544 23.0162 4.2075 23.6483 4.98736 23.6483H8.22071" stroke="black" stroke-width="0.703125" stroke-miterlimit="10" stroke-linecap="round" stroke-linejoin="round"/>
<path d="M16.7208 14.309C16.7208 12.4321 16.3725 10.3236 15.8529 9.1192C15.2988 7.83666 14.642 7.7692 14.0588 9.1192C13.3854 10.6801 13.0866 13.4529 13.2234 15.2319C13.3806 17.3315 14.0964 18.0153 14.9558 18.0153C16.493 18.0153 16.7208 15.8409 16.7208 14.309Z" stroke="black" stroke-width="0.703125" stroke-miterlimit="10" stroke-linecap="round" stroke-linejoin="round"/>
<path d="M16.6882 15.2317C15.6245 14.7163 14.3255 14.6977 13.2234 15.2317" stroke="black" stroke-width="0.703125" stroke-miterlimit="10" stroke-linecap="round" stroke-linejoin="round"/>
<path d="M14.9558 16.6032V16.2502" stroke="black" stroke-width="0.703125" stroke-miterlimit="10" stroke-linecap="round" stroke-linejoin="round"/>
<path d="M14.9558 13.4263V12.0144" stroke="black" stroke-width="0.703125" stroke-miterlimit="10" stroke-linecap="round" stroke-linejoin="round"/>
<path d="M14.0587 9.11916C13.741 8.92055 13.4332 8.57649 13.213 8.136C12.7772 7.26389 12.8478 6.34519 13.3711 6.084C13.838 5.8501 14.5073 6.01763 14.9558 6.71986C15.4043 6.01768 16.0735 5.8501 16.5404 6.084C17.0638 6.34519 17.1344 7.26389 16.6986 8.136C16.4783 8.57654 16.1705 8.92055 15.8528 9.11916" stroke="black" stroke-width="0.703125" stroke-miterlimit="10" stroke-linecap="round" stroke-linejoin="round"/>
<path d="M10.8094 9.69093C10.8094 13.4233 9.4514 17.8993 8.14739 14.8807C7.62778 13.6764 7.27954 11.5679 7.27954 9.69093C7.27954 8.15906 7.50731 5.98462 9.04448 5.98462C10.5817 5.98462 10.8094 8.15906 10.8094 9.69093Z" stroke="black" stroke-width="0.703125" stroke-miterlimit="10" stroke-linecap="round" stroke-linejoin="round"/>
<path d="M7.31201 8.76807C8.37579 9.28355 9.67479 9.30211 10.7769 8.76807" stroke="black" stroke-width="0.703125" stroke-miterlimit="10" stroke-linecap="round" stroke-linejoin="round"/>
<path d="M9.04443 7.39648V7.74945" stroke="black" stroke-width="0.703125" stroke-miterlimit="10" stroke-linecap="round" stroke-linejoin="round"/>
<path d="M9.04443 10.5735V11.9854" stroke="black" stroke-width="0.703125" stroke-miterlimit="10" stroke-linecap="round" stroke-linejoin="round"/>
<path d="M9.94144 14.8806C10.2591 15.0792 10.5669 15.4233 10.7872 15.8638C11.223 16.7359 11.1524 17.6546 10.629 17.9158C10.1622 18.1497 9.49289 17.9821 9.04439 17.2799C8.59589 17.9821 7.92661 18.1497 7.45973 17.9158C6.93637 17.6546 6.86578 16.7359 7.30158 15.8638C7.52184 15.4232 7.82962 15.0792 8.14734 14.8806" stroke="black" stroke-width="0.703125" stroke-miterlimit="10" stroke-linecap="round" stroke-linejoin="round"/>
</svg>
