<svg width="24" height="24" viewBox="0 0 24 24" fill="none" xmlns="http://www.w3.org/2000/svg">
<g clip-path="url(#clip0_62_35531)">
<path d="M21.9049 15.3228L21.0546 22.4093C20.9698 23.1162 20.3702 23.6482 19.6582 23.6482H14.4049C9.55392 23.1356 5.35406 19.8799 8.09039 16.106L11.9998 16.617L21.9049 15.3228Z" fill="#FFCE71"/>
<path d="M14.405 23.6483H4.34145C3.62941 23.6483 3.02988 23.1163 2.94504 22.4094L2.09473 15.3228L6.67348 14.8789C8.19457 16.1759 9.8277 17.6492 9.8277 17.6492C9.84738 20.2062 11.1304 22.9625 14.405 23.6483Z" fill="#FFB357"/>
<path d="M9.87555 2.74261C7.37098 1.51524 3.77173 2.27063 1.53752 3.639C1.05616 3.9338 0.948539 4.58405 1.30057 5.02528C2.38779 6.38794 3.29243 8.82718 3.34268 10.3086C6.88348 9.41541 8.64977 6.252 9.87555 2.74261Z" fill="#FFEBCE"/>
<path d="M14.1243 2.74258C16.6289 1.51525 20.2281 2.27064 22.4623 3.63897C22.9437 3.93377 23.0513 4.58402 22.6993 5.02525C21.6121 6.38791 20.7074 8.82714 20.6572 10.3086C17.1163 9.41538 15.35 6.25197 14.1243 2.74258Z" fill="#FFF4E5"/>
<path d="M15.4618 5.09452C16.0835 3.38633 14.9112 1.39149 12.8434 0.638917C10.7755 -0.113658 8.59525 0.661021 7.97357 2.36921C7.35188 4.0774 8.5242 6.07224 10.592 6.82481C12.6598 7.57739 14.8401 6.80271 15.4618 5.09452Z" fill="#FFCE71"/>
<path d="M12.6422 8.49184C12.9577 6.70166 11.4568 4.94076 9.28974 4.55876C7.12268 4.17675 5.11011 5.31829 4.79454 7.10846C4.47896 8.89863 5.9799 10.6595 8.14696 11.0415C10.314 11.4235 12.3266 10.282 12.6422 8.49184Z" fill="#FC8A3D"/>
<path d="M9.88465 13.3623C10.5063 11.6542 9.33402 9.65931 7.2662 8.90674C5.19838 8.15416 3.01811 8.92884 2.39642 10.637C1.77473 12.3452 2.94705 14.3401 5.01487 15.0926C7.08269 15.8452 9.26296 15.0705 9.88465 13.3623Z" fill="#FFB357"/>
<path d="M15.8522 11.0426C18.0193 10.6606 19.5202 8.89965 19.2047 7.10948C18.8891 5.31931 16.8765 4.17777 14.7095 4.55978C12.5424 4.94179 11.0415 6.70269 11.357 8.49286C11.6726 10.283 13.6852 11.4246 15.8522 11.0426Z" fill="#FFB357"/>
<path d="M18.985 15.0933C21.0528 14.3407 22.2251 12.3458 21.6034 10.6377C20.9817 8.92947 18.8014 8.15479 16.7336 8.90736C14.6658 9.65994 13.4935 11.6548 14.1152 13.363C14.7369 15.0712 16.9171 15.8458 18.985 15.0933Z" fill="#FC8A3D"/>
<path d="M12 16.2481C14.2005 16.2481 15.9844 14.7745 15.9844 12.9567C15.9844 11.1389 14.2005 9.66528 12 9.66528C9.79949 9.66528 8.01562 11.1389 8.01562 12.9567C8.01562 14.7745 9.79949 16.2481 12 16.2481Z" fill="#FFCE71"/>
<path d="M9.65831 21.375C9.65643 21.9773 9.04181 22.4636 8.28557 22.4612C7.52934 22.4588 6.91781 21.9687 6.91968 21.3665C6.92156 20.7642 7.53614 20.2779 8.29242 20.2803C9.04865 20.2827 9.66018 20.7728 9.65831 21.375Z" fill="white"/>
<path d="M14.3418 21.3897C14.3399 21.9919 14.9515 22.482 15.7077 22.4844C16.4639 22.4868 17.0786 22.0005 17.0804 21.3982C17.0823 20.796 16.4708 20.3059 15.7145 20.3035C14.9583 20.3011 14.3437 20.7874 14.3418 21.3897Z" fill="white"/>
<path d="M13.1067 20.548C13.1088 19.8657 12.6147 19.8001 12.005 19.7981C11.3953 19.7962 10.9008 19.8588 10.8987 20.5411C10.8966 21.2233 11.3891 21.7779 11.9988 21.7799C12.6085 21.7818 13.1045 21.2303 13.1067 20.548Z" fill="#666667"/>
<path d="M22.6163 14.5162C22.6163 15.0585 22.2994 15.5783 21.7645 15.8108C19.3575 16.8576 16.8239 17.4993 14.2608 17.7365C12.0727 17.465 10.8301 16.1907 11.8219 15.0271C14.8294 15.0524 17.8406 14.4519 20.655 13.2262C21.3342 12.9304 22.1264 13.2201 22.4625 13.8801C22.567 14.0849 22.6163 14.3024 22.6163 14.5162Z" fill="#DF8A57"/>
<path d="M14.2607 17.7364C10.1938 18.1133 6.05477 17.4716 2.23539 15.8108C1.48961 15.4864 1.16805 14.6043 1.53742 13.88C1.78446 13.3954 2.27711 13.1104 2.79039 13.1104C2.97602 13.1104 3.16446 13.1474 3.34492 13.2261C6.04867 14.4036 8.93336 15.0041 11.8218 15.0271C11.9549 16.2538 12.6834 17.4993 14.2607 17.7364Z" fill="#C76D33"/>
<path d="M11.2027 15.014L6.24702 16.8173C3.27468 16.0902 2.03554 14.214 3.1214 11.4595C6.10312 11.8298 8.78156 12.891 11.2027 15.014Z" fill="#FFF4E5"/>
<path d="M6.24706 16.8173L1.61019 18.5048C0.946904 18.7462 0.265341 18.1959 0.360498 17.496C0.633779 15.4874 0.998935 13.618 1.54409 12.0219C1.68331 11.6146 2.08456 11.3544 2.51347 11.3938C2.71737 11.4126 2.92034 11.4346 3.12143 11.4594C2.89315 13.7905 3.88034 15.7912 6.24706 16.8173Z" fill="#FFE0B7"/>
<path d="M22.3897 18.5048L21.8052 18.2919C18.7206 17.0929 17.1905 14.769 17.796 12.1382C18.973 11.7505 20.2021 11.5119 21.4865 11.3938C21.9154 11.3544 22.3166 11.6146 22.4558 12.0219C23.001 13.618 23.3662 15.4874 23.6394 17.496C23.7346 18.1959 23.053 18.7462 22.3897 18.5048Z" fill="#FFF4E5"/>
<path d="M21.8053 18.2919L12.7974 15.014C14.3531 13.6494 16.0153 12.7237 17.7961 12.1382C18.0319 14.563 19.2417 16.9654 21.8053 18.2919Z" fill="#FFE0B7"/>
<path d="M3.23966 9.443C2.96638 7.99738 2.19528 6.14675 1.30091 5.0255C0.948878 4.58394 1.05622 3.93378 1.53763 3.63894C3.26825 2.5791 5.81732 1.88722 8.04247 2.19941" stroke="black" stroke-width="0.703125" stroke-miterlimit="10" stroke-linecap="round" stroke-linejoin="round"/>
<path d="M15.082 2.38028C17.4839 1.7081 20.4998 2.437 22.4625 3.63888C22.9439 3.93372 23.0513 4.58388 22.6992 5.02544C21.8048 6.14669 21.0338 7.99731 20.7605 9.44294" stroke="black" stroke-width="0.703125" stroke-miterlimit="10" stroke-linecap="round" stroke-linejoin="round"/>
<path d="M8.04944 4.5033C7.76538 3.81377 7.71991 3.06752 7.97397 2.36955C8.59554 0.661427 10.7757 -0.113417 12.8438 0.639395C14.6696 1.30361 15.7974 2.93721 15.608 4.48596" stroke="black" stroke-width="0.703125" stroke-miterlimit="10" stroke-linecap="round" stroke-linejoin="round"/>
<path d="M10.7874 5.09155C11.273 5.36577 11.685 5.71921 12 6.12374" stroke="black" stroke-width="0.703125" stroke-miterlimit="10" stroke-linecap="round" stroke-linejoin="round"/>
<path d="M4.9706 8.67509C4.76903 8.18009 4.70013 7.64571 4.79482 7.10852C5.10841 5.33243 7.09122 4.19524 9.23857 4.55055" stroke="black" stroke-width="0.703125" stroke-miterlimit="10" stroke-linecap="round" stroke-linejoin="round"/>
<path d="M2.2356 11.4103C2.252 11.1497 2.3045 10.8905 2.39685 10.6374C3.01841 8.92925 5.19856 8.15441 7.26669 8.90722C8.1681 9.23534 8.89935 9.79972 9.38591 10.4733" stroke="black" stroke-width="0.703125" stroke-miterlimit="10" stroke-linecap="round" stroke-linejoin="round"/>
<path d="M11.864 9.667C11.61 9.322 11.4337 8.92637 11.3573 8.49231C11.0418 6.70215 12.5428 4.94106 14.7098 4.55903C16.8768 4.177 18.8892 5.3184 19.2051 7.10856C19.2998 7.64575 19.2309 8.18012 19.0293 8.67512" stroke="black" stroke-width="0.703125" stroke-miterlimit="10" stroke-linecap="round" stroke-linejoin="round"/>
<path d="M14.6143 10.4733C15.1008 9.79972 15.8321 9.23534 16.7335 8.90722C18.8016 8.15441 20.9818 8.92925 21.6033 10.6374C21.6957 10.8905 21.7482 11.1497 21.7646 11.4103" stroke="black" stroke-width="0.703125" stroke-miterlimit="10" stroke-linecap="round" stroke-linejoin="round"/>
<path d="M8.01709 12.8755C8.06912 11.0952 9.83256 9.66504 12.0001 9.66504C14.1676 9.66504 15.931 11.0952 15.983 12.8755" stroke="black" stroke-width="0.703125" stroke-miterlimit="10" stroke-linecap="round" stroke-linejoin="round"/>
<path d="M2.44043 18.2024L2.94527 22.4094C3.03012 23.1163 3.62965 23.6483 4.34168 23.6483H19.6586C20.3706 23.6483 20.9701 23.1163 21.055 22.4094L21.5598 18.2024" stroke="black" stroke-width="0.703125" stroke-miterlimit="10" stroke-linecap="round" stroke-linejoin="round"/>
<path d="M18.3009 17.0171C16.6195 17.4647 14.9015 17.7301 13.177 17.8126" stroke="black" stroke-width="0.703125" stroke-miterlimit="10" stroke-linecap="round" stroke-linejoin="round"/>
<path d="M11.5365 17.8365C9.57248 17.7994 7.61217 17.5262 5.69873 17.0171" stroke="black" stroke-width="0.703125" stroke-miterlimit="10" stroke-linecap="round" stroke-linejoin="round"/>
<path d="M11.2021 15.0137C11.7337 15.0334 12.2662 15.0334 12.7978 15.0137" stroke="black" stroke-width="0.703125" stroke-miterlimit="10" stroke-linecap="round" stroke-linejoin="round"/>
<path d="M13.1067 20.5402C13.1088 19.8579 12.6147 19.7922 12.005 19.7903C11.3953 19.7884 10.9008 19.851 10.8987 20.5332C10.8966 21.2155 11.3891 21.7701 11.9988 21.7721C12.6085 21.774 13.1045 21.2225 13.1067 20.5402Z" stroke="black" stroke-width="0.703125" stroke-miterlimit="10" stroke-linecap="round" stroke-linejoin="round"/>
<path d="M9.74251 20.1809C9.74364 19.821 9.45278 19.5282 9.09278 19.5271C8.73282 19.526 8.44009 19.8169 8.43896 20.1768" stroke="black" stroke-width="0.703125" stroke-miterlimit="10" stroke-linecap="round" stroke-linejoin="round"/>
<path d="M14.2651 20.1951C14.2663 19.8352 14.559 19.5443 14.9189 19.5454C15.2789 19.5465 15.5698 19.8393 15.5687 20.1992" stroke="black" stroke-width="0.703125" stroke-miterlimit="10" stroke-linecap="round" stroke-linejoin="round"/>
<path d="M19.7555 11.6352C20.3213 11.5274 20.8983 11.4482 21.4866 11.3938C21.9155 11.3544 22.3167 11.6146 22.456 12.0219C23.0011 13.618 23.3663 15.4874 23.6396 17.496C23.7347 18.1959 23.0531 18.7462 22.3899 18.5048L12.7974 15.014C14.4591 13.5566 16.2422 12.5999 18.1613 12.0233" stroke="black" stroke-width="0.703125" stroke-miterlimit="10" stroke-linecap="round" stroke-linejoin="round"/>
<path d="M1.54404 12.0221C0.998835 13.6179 0.633678 15.4873 0.360491 17.4962C0.265382 18.1957 0.946803 18.7464 1.61008 18.505L11.2024 15.0139C8.61771 12.7477 5.74033 11.6914 2.51355 11.3941C2.08474 11.3546 1.68326 11.6145 1.54404 12.0221Z" stroke="black" stroke-width="0.703125" stroke-miterlimit="10" stroke-linecap="round" stroke-linejoin="round"/>
<circle cx="13.1492" cy="11.8386" r="0.351562" fill="black"/>
<circle cx="10.9446" cy="11.5671" r="0.351562" fill="black"/>
<circle cx="11.7415" cy="13.1692" r="0.351562" fill="black"/>
<circle cx="13.8198" cy="7.91675" r="0.351562" fill="black"/>
<circle cx="14.8979" cy="6.40845" r="0.351562" fill="black"/>
<circle cx="16.7275" cy="7.05493" r="0.351562" fill="black"/>
<circle cx="18.843" cy="10.2507" r="0.351562" fill="black"/>
<circle cx="17.2065" cy="10.6604" r="0.351562" fill="black"/>
<circle cx="6.78296" cy="10.6604" r="0.351562" fill="black"/>
<circle cx="5.14648" cy="10.2507" r="0.351562" fill="black"/>
<circle cx="9.35913" cy="7.80908" r="0.351562" fill="black"/>
<circle cx="8.74976" cy="6.30078" r="0.351562" fill="black"/>
<circle cx="6.92017" cy="6.94702" r="0.351562" fill="black"/>
<circle cx="12.4688" cy="2.35449" r="0.351562" fill="black"/>
<circle cx="10.6863" cy="2.36426" r="0.351562" fill="black"/>
<circle cx="11.8113" cy="3.82593" r="0.351562" fill="black"/>
</g>
<defs>
<clipPath id="clip0_62_35531">
<rect width="24" height="24" fill="white"/>
</clipPath>
</defs>
</svg>
